<?xml version="1.0" encoding="UTF-8"?>
<svg xmlns="http://www.w3.org/2000/svg" viewBox="0 0 1390.97 1424.05">
  <defs>
    <style>
      .cls-1 {
        stroke-width: 0px;
      }

      .cls-1, .cls-2, .cls-3, .cls-4 {
        fill: #231f20;
      }

      .cls-2 {
        font-size: 148.41px;
      }

      .cls-2, .cls-4 {
        font-family: MandritaDisplaySSi, 'Abbott Old Style';
      }

      .cls-3 {
        stroke: #000;
        stroke-miterlimit: 10;
      }

      .cls-4 {
        font-size: 128.19px;
      }
    </style>
  </defs>
  <g id="Layer_4" data-name="Layer 4">
    <g>
      <text class="cls-4" transform="translate(715.12 721.24) scale(1.38 1)"><tspan x="0" y="0">Stellar</tspan></text>
      <text class="cls-2" transform="translate(814.91 824.62) scale(1.09 1)"><tspan x="0" y="0">Canvas</tspan></text>
    </g>
  </g>
  <g id="Layer_5" data-name="Layer 5">
    <g>
      <g>
        <path class="cls-3" d="M452.73,695.66c-3.72-4.14-9.27-6.33-16.03-6.33-13.64,0-31.41,9.02-37.48,25.73-4.54,12.5-2.84,29.99,7.87,37.61,3.29,2.34,7.1,3.54,11.32,3.54,12.43,0,24.84-10.31,31.1-19.89,6.46-9.9,13.06-29.7,3.22-40.66ZM441.64,730.27c-6.79,10.39-21.09,19.48-29.26,13.66-6.34-4.52-7.2-16.72-4.18-25.04,6.19-17.03,30.76-23.58,37.63-15.93,5.01,5.59,1.04,19.3-4.18,27.31ZM452.73,695.66c-3.72-4.14-9.27-6.33-16.03-6.33-13.64,0-31.41,9.02-37.48,25.73-4.54,12.5-2.84,29.99,7.87,37.61,3.29,2.34,7.1,3.54,11.32,3.54,12.43,0,24.84-10.31,31.1-19.89,6.46-9.9,13.06-29.7,3.22-40.66ZM441.64,730.27c-6.79,10.39-21.09,19.48-29.26,13.66-6.34-4.52-7.2-16.72-4.18-25.04,6.19-17.03,30.76-23.58,37.63-15.93,5.01,5.59,1.04,19.3-4.18,27.31ZM452.73,695.66c-3.72-4.14-9.27-6.33-16.03-6.33-13.64,0-31.41,9.02-37.48,25.73-4.54,12.5-2.84,29.99,7.87,37.61,3.29,2.34,7.1,3.54,11.32,3.54,12.43,0,24.84-10.31,31.1-19.89,6.46-9.9,13.06-29.7,3.22-40.66ZM441.64,730.27c-6.79,10.39-21.09,19.48-29.26,13.66-6.34-4.52-7.2-16.72-4.18-25.04,6.19-17.03,30.76-23.58,37.63-15.93,5.01,5.59,1.04,19.3-4.18,27.31ZM452.73,695.66c-3.72-4.14-9.27-6.33-16.03-6.33-13.64,0-31.41,9.02-37.48,25.73-4.54,12.5-2.84,29.99,7.87,37.61,3.29,2.34,7.1,3.54,11.32,3.54,12.43,0,24.84-10.31,31.1-19.89,6.46-9.9,13.06-29.7,3.22-40.66ZM441.64,730.27c-6.79,10.39-21.09,19.48-29.26,13.66-6.34-4.52-7.2-16.72-4.18-25.04,6.19-17.03,30.76-23.58,37.63-15.93,5.01,5.59,1.04,19.3-4.18,27.31ZM452.73,695.66c-3.72-4.14-9.27-6.33-16.03-6.33-13.64,0-31.41,9.02-37.48,25.73-4.54,12.5-2.84,29.99,7.87,37.61,3.29,2.34,7.1,3.54,11.32,3.54,12.43,0,24.84-10.31,31.1-19.89,6.46-9.9,13.06-29.7,3.22-40.66ZM441.64,730.27c-6.79,10.39-21.09,19.48-29.26,13.66-6.34-4.52-7.2-16.72-4.18-25.04,6.19-17.03,30.76-23.58,37.63-15.93,5.01,5.59,1.04,19.3-4.18,27.31ZM452.73,695.66c-3.72-4.14-9.27-6.33-16.03-6.33-13.64,0-31.41,9.02-37.48,25.73-4.54,12.5-2.84,29.99,7.87,37.61,3.29,2.34,7.1,3.54,11.32,3.54,12.43,0,24.84-10.31,31.1-19.89,6.46-9.9,13.06-29.7,3.22-40.66ZM441.64,730.27c-6.79,10.39-21.09,19.48-29.26,13.66-6.34-4.52-7.2-16.72-4.18-25.04,6.19-17.03,30.76-23.58,37.63-15.93,5.01,5.59,1.04,19.3-4.18,27.31ZM534.79,672.46c-4.62-7.41-15.65-16.68-28.96-19.54-2.57-.55-5-.82-7.45-.82-5.63,0-10.14,1.4-14.93,2.9-3.95,1.23-8.05,2.51-13.72,3.31-4.67.66-10.49,1.47-16.12,1.47-7.37,0-12.67-1.44-15.32-4.18-2.21-2.27-2.21-5.39-1.05-15.7,1.17-10.39,2.77-24.6-2.48-41.72-8.84-28.84-30.17-44.61-38.94-50.05-12.81-7.95-27.44-11.99-43.48-11.99-9.32,0-17.17,1.29-23.81,2.5-72.05,13.15-113.54,87.72-127.2,112.28-14,25.2-31.43,56.55-32.75,101.62-1.58,55.1,14.55,99.16,45.42,124.08,24.36,19.66,51.07,22.18,71.62,22.18,8.1,0,15.9-.44,23.44-.86,33.81-1.88,68.9-13.25,101.49-32.86,66.95-40.26,117.34-111.34,127.39-156.81,3.33-15.04,2.26-27.09-3.17-35.82ZM405.89,855.94c-44.76,26.93-82.67,30.74-97.31,31.56-28.18,1.58-60.74,3.4-88.81-19.27-43.84-35.38-41.91-102.31-41.53-115.38,1.22-42.34,17.61-71.79,31.38-96.56,13.58-24.4,52.83-94.99,120.53-107.34,12.85-2.34,37.27-6.41,60.9,8.25,4.78,2.97,26.23,17.07,34.57,44.27,9.24,30.15-5.88,49.41,6.04,61.7,9.41,9.71,27.95,7.1,39.33,5.5,15.97-2.24,21.28-8.01,32.99-5.5,10.25,2.2,19.27,9.42,22.83,15.13,18.13,29.13-38.2,127.89-120.9,177.63ZM436.71,689.34c-13.64,0-31.41,9.02-37.48,25.73-4.54,12.5-2.84,29.99,7.87,37.61,3.29,2.34,7.1,3.54,11.32,3.54,12.43,0,24.84-10.31,31.1-19.89,6.46-9.9,13.06-29.7,3.22-40.66-3.72-4.14-9.27-6.33-16.03-6.33ZM441.64,730.27c-6.79,10.39-21.09,19.48-29.26,13.66-6.34-4.52-7.2-16.72-4.18-25.04,6.19-17.03,30.76-23.58,37.63-15.93,5.01,5.59,1.04,19.3-4.18,27.31ZM452.73,695.66c-3.72-4.14-9.27-6.33-16.03-6.33-13.64,0-31.41,9.02-37.48,25.73-4.54,12.5-2.84,29.99,7.87,37.61,3.29,2.34,7.1,3.54,11.32,3.54,12.43,0,24.84-10.31,31.1-19.89,6.46-9.9,13.06-29.7,3.22-40.66ZM441.64,730.27c-6.79,10.39-21.09,19.48-29.26,13.66-6.34-4.52-7.2-16.72-4.18-25.04,6.19-17.03,30.76-23.58,37.63-15.93,5.01,5.59,1.04,19.3-4.18,27.31ZM452.73,695.66c-3.72-4.14-9.27-6.33-16.03-6.33-13.64,0-31.41,9.02-37.48,25.73-4.54,12.5-2.84,29.99,7.87,37.61,3.29,2.34,7.1,3.54,11.32,3.54,12.43,0,24.84-10.31,31.1-19.89,6.46-9.9,13.06-29.7,3.22-40.66ZM441.64,730.27c-6.79,10.39-21.09,19.48-29.26,13.66-6.34-4.52-7.2-16.72-4.18-25.04,6.19-17.03,30.76-23.58,37.63-15.93,5.01,5.59,1.04,19.3-4.18,27.31ZM452.73,695.66c-3.72-4.14-9.27-6.33-16.03-6.33-13.64,0-31.41,9.02-37.48,25.73-4.54,12.5-2.84,29.99,7.87,37.61,3.29,2.34,7.1,3.54,11.32,3.54,12.43,0,24.84-10.31,31.1-19.89,6.46-9.9,13.06-29.7,3.22-40.66ZM441.64,730.27c-6.79,10.39-21.09,19.48-29.26,13.66-6.34-4.52-7.2-16.72-4.18-25.04,6.19-17.03,30.76-23.58,37.63-15.93,5.01,5.59,1.04,19.3-4.18,27.31ZM452.73,695.66c-3.72-4.14-9.27-6.33-16.03-6.33-13.64,0-31.41,9.02-37.48,25.73-4.54,12.5-2.84,29.99,7.87,37.61,3.29,2.34,7.1,3.54,11.32,3.54,12.43,0,24.84-10.31,31.1-19.89,6.46-9.9,13.06-29.7,3.22-40.66ZM441.64,730.27c-6.79,10.39-21.09,19.48-29.26,13.66-6.34-4.52-7.2-16.72-4.18-25.04,6.19-17.03,30.76-23.58,37.63-15.93,5.01,5.59,1.04,19.3-4.18,27.31Z"/>
        <g>
          <path class="cls-1" d="M313.13,650.58c-2.82,0-5.56-.48-8.16-1.43-13.5-4.93-18.17-20.45-19.28-25.09-.8-3.35-3.25-13.55,1.27-23.47,5.27-11.56,18.02-17.92,35.9-17.92,6.93,0,14.18.99,20.42,2.8,9.15,2.65,20.05,7.59,20.07,16.05,0,4.92-3.45,7.34-6.51,9.48-2.13,1.49-4.78,3.35-7.47,6.48-3.02,3.51-3.86,6-4.83,8.89-.98,2.92-2.1,6.22-5.15,10.17-5,6.48-14.88,14.04-26.25,14.04h0Z"/>
          <path class="cls-1" d="M342.03,590.51c-15.27-4.43-42.83-4.99-50.75,12.39-3.72,8.17-1.61,17-.93,19.83.79,3.31,4.64,17.25,16.15,21.45,11.26,4.11,23.36-3.47,29.18-11.01,5.43-7.03,3.31-11.31,10.15-19.27,6.6-7.68,12.69-8.49,12.69-12.39-.01-6.11-15.03-10.58-16.49-11.01Z"/>
        </g>
        <g>
          <path class="cls-1" d="M251.57,741.18c-10.94,0-21.93-7.14-27.34-17.77-5.57-10.93-3.33-21.98-2.49-26.14,3.72-18.38,18.85-38.86,34.61-38.86,1.37,0,2.74.15,4.08.46,16.13,3.67,24.81,29.2,21.52,48.72-.82,4.85-5.89,29.22-25.44,33.1-1.61.32-3.27.48-4.93.48h0Z"/>
          <path class="cls-1" d="M259.44,663.99c-14.3-3.25-29.49,17.12-32.99,34.41-.86,4.27-2.59,13.47,2,22.49,5.04,9.9,16.28,16.83,27.18,14.67,16.93-3.36,21.13-26.32,21.57-28.9,2.91-17.27-4.62-39.67-17.76-42.66Z"/>
        </g>
        <g>
          <path class="cls-1" d="M225.49,817.27c-8.89,0-18.94-7.49-23.38-17.43-5.33-11.92-1.85-25.64,3.18-34.51,4.54-7.99,10.63-12.82,16.31-12.92h.18c10.45,0,16.69,15.2,18.35,19.86,3.83,10.73,3.89,24.56.16,33.65-2.09,5.08-5.3,8.64-9.29,10.29-1.71.7-3.56,1.06-5.51,1.06Z"/>
          <path class="cls-1" d="M221.67,757.65c7.86-.13,13.41,14.98,13.96,16.51,4.74,13.3,3.21,33.21-6.34,37.16-7.52,3.11-18.59-4.27-22.84-13.76-7.35-16.43,5.54-39.75,15.22-39.91Z"/>
        </g>
        <g>
          <path class="cls-1" d="M361.01,854.44c-15.09,0-29.37-9.27-34.72-22.54-5.74-14.24,0-28.2,2.74-33.54,5.85-11.43,19.17-23.73,34.56-23.73,3.66,0,7.26.71,10.69,2.11,15.98,6.52,22.69,25.05,22.15,39.51-.03.93-1.03,22.84-17.63,33.22-5.2,3.25-11.34,4.97-17.78,4.97Z"/>
          <path class="cls-1" d="M333.24,800.9c6.84-13.36,23.46-25.75,39.33-19.27,13.12,5.36,19.52,21.07,19.03,34.41-.04,1.07-1.02,20.02-15.22,28.9-15.73,9.84-38.84,1.8-45.67-15.14-5.15-12.76.91-25.71,2.54-28.9Z"/>
        </g>
      </g>
      <g>
        <path class="cls-1" d="M279.75,878.72c-.6,0-1.19-.02-1.79-.06-9.89-.71-20.02-7.6-25.82-17.54-3.81-6.54-5.61-14.04-5.32-22.28.55-16,10.24-34.99,23.29-36.65.58-.07,1.15-.11,1.7-.11,4.35,0,7.23,2.23,10.89,5.05,3.02,2.33,7.15,5.52,14.23,9.33,5.18,2.79,8.67,4.15,11.22,5.15,3.8,1.49,6.8,2.66,8.72,6.85,3.04,6.64,1.29,16.84-4.67,27.28-6.36,11.12-18.21,22.99-32.43,22.99Z"/>
        <path class="cls-1" d="M251.64,839.03c.48-13.99,8.86-30.35,19.03-31.65,6.32-.81,7.67,4.92,24.11,13.76,12.66,6.81,15.92,5.6,17.76,9.63,5.44,11.89-12.95,44.2-34.26,42.66-8.69-.63-17.24-6.83-22.06-15.11-4.85-8.32-4.67-16.58-4.58-19.29Z"/>
      </g>
    </g>
    <path class="cls-1" d="M516.39,645.7c-.35-3.52,23.62-9.8,42.64-12.83,29.25-4.66,49.8-2.27,71.47.81,25.21,3.59,33.82,8.03,39.88,15.62.5.63,7.09,9.06,8.31,19.23,4.8,40.09-76.68,83.98-92.88,92.38-32.06,16.64-58.11,23.87-80.75,30.02-121.97,33.13-170.35,43.43-170.35,43.43-26.25,5.59-174.95,36.48-289.7,24.03-11.88-1.29-34.13-4.21-42.1-20.43-13.75-27.98,25.22-77.6,32.68-87.12,14.39-18.36,30.58-31.51,39.88-39.06,13.12-10.65,23.4-17.13,34.34-24.03,0,0,16.67-10.31,67.91-30.26,1.98-.77,6.91-2.64,7.98-.98,1.04,1.61-2.05,5.75-3.1,7.16-10.3,13.83-55.83,30.99-82.37,49.97-11.22,8.03-30.76,24.76-42.17,52.43-5.37,13.03-11.82,29.62-6.97,43.66,6.95,20.09,40.46,27.72,98.04,27.04,68.25-.81,113.83-13.13,168.94-24.63,139.42-29.11,154.48-23.63,208.83-48.67,52.62-24.25,113.28-63.85,108.01-89.53-2.37-11.58-18.32-21.1-20.57-22.41-12.97-7.54-25.67-7.01-38.7-6.43-17.19.76-24.59,4.96-44.87,3.61-5.74-.38-14.2-.95-14.4-3Z"/>
    <path class="cls-1" d="M95.42,621.07c.05-4.38,16.61-2.46,28.43-13.17,19.67-17.8,13.9-58.96,15.88-58.94,1.94.02-4.3,39.21,14.4,57.08,11.22,10.73,27.21,9.75,27.14,14.42-.06,4.43-14.46,3.09-24.86,12.77-18.05,16.81-11.38,55.01-13.91,55.12-2.4.11,1.58-34.9-16.62-52.27-12.67-12.1-30.52-10.48-30.47-15.02Z"/>
    <path class="cls-1" d="M538.47,791.01c-.3-3.71,31.58-.96,49.85-21.03,23.08-25.36,13.37-74.99,16.06-75.11,2.72-.12-3.16,51.34,22.16,73.9,19.15,17.06,48.62,10.89,48.74,15.02.12,4.08-29.02,0-47.64,18.03-24.46,23.67-17.59,72.7-21.47,72.7-4.03,0,2.55-52.78-22.67-73.16-17.89-14.45-44.76-6.91-45.04-10.36Z"/>
    <ellipse class="cls-1" cx="64.61" cy="724.91" rx="33.94" ry="36.82"/>
    <ellipse class="cls-1" cx="575.38" cy="640.21" rx="22.99" ry="23.73"/>
  </g>
</svg>