<?xml version="1.0" encoding="UTF-8"?>
<svg id="Layer_5" data-name="Layer 5" xmlns="http://www.w3.org/2000/svg" viewBox="0 0 1226.51 1424.05">
  <defs>
    <style>
      .cls-1 {
        stroke-width: 0px;
      }

      .cls-1, .cls-2 {
        fill: #231f20;
      }

      .cls-2 {
        stroke: #000;
        stroke-miterlimit: 10;
      }
    </style>
  </defs>
  <g>
    <path class="cls-2" d="M815.42,681.13c-6.72-7.62-16.74-11.64-28.95-11.64-24.65,0-56.75,16.59-67.71,47.35-8.2,23-5.14,55.18,14.21,69.21,5.94,4.31,12.82,6.51,20.45,6.51,22.45,0,44.87-18.98,56.18-36.61,11.67-18.23,23.59-54.66,5.82-74.81ZM795.38,744.82c-12.26,19.11-38.1,35.84-52.87,25.14-11.46-8.31-13.01-30.78-7.56-46.08,11.18-31.33,55.57-43.38,67.99-29.31,9.06,10.28,1.88,35.51-7.56,50.25ZM815.42,681.13c-6.72-7.62-16.74-11.64-28.95-11.64-24.65,0-56.75,16.59-67.71,47.35-8.2,23-5.14,55.18,14.21,69.21,5.94,4.31,12.82,6.51,20.45,6.51,22.45,0,44.87-18.98,56.18-36.61,11.67-18.23,23.59-54.66,5.82-74.81ZM795.38,744.82c-12.26,19.11-38.1,35.84-52.87,25.14-11.46-8.31-13.01-30.78-7.56-46.08,11.18-31.33,55.57-43.38,67.99-29.31,9.06,10.28,1.88,35.51-7.56,50.25ZM815.42,681.13c-6.72-7.62-16.74-11.64-28.95-11.64-24.65,0-56.75,16.59-67.71,47.35-8.2,23-5.14,55.18,14.21,69.21,5.94,4.31,12.82,6.51,20.45,6.51,22.45,0,44.87-18.98,56.18-36.61,11.67-18.23,23.59-54.66,5.82-74.81ZM795.38,744.82c-12.26,19.11-38.1,35.84-52.87,25.14-11.46-8.31-13.01-30.78-7.56-46.08,11.18-31.33,55.57-43.38,67.99-29.31,9.06,10.28,1.88,35.51-7.56,50.25ZM815.42,681.13c-6.72-7.62-16.74-11.64-28.95-11.64-24.65,0-56.75,16.59-67.71,47.35-8.2,23-5.14,55.18,14.21,69.21,5.94,4.31,12.82,6.51,20.45,6.51,22.45,0,44.87-18.98,56.18-36.61,11.67-18.23,23.59-54.66,5.82-74.81ZM795.38,744.82c-12.26,19.11-38.1,35.84-52.87,25.14-11.46-8.31-13.01-30.78-7.56-46.08,11.18-31.33,55.57-43.38,67.99-29.31,9.06,10.28,1.88,35.51-7.56,50.25ZM815.42,681.13c-6.72-7.62-16.74-11.64-28.95-11.64-24.65,0-56.75,16.59-67.71,47.35-8.2,23-5.14,55.18,14.21,69.21,5.94,4.31,12.82,6.51,20.45,6.51,22.45,0,44.87-18.98,56.18-36.61,11.67-18.23,23.59-54.66,5.82-74.81ZM795.38,744.82c-12.26,19.11-38.1,35.84-52.87,25.14-11.46-8.31-13.01-30.78-7.56-46.08,11.18-31.33,55.57-43.38,67.99-29.31,9.06,10.28,1.88,35.51-7.56,50.25ZM815.42,681.13c-6.72-7.62-16.74-11.64-28.95-11.64-24.65,0-56.75,16.59-67.71,47.35-8.2,23-5.14,55.18,14.21,69.21,5.94,4.31,12.82,6.51,20.45,6.51,22.45,0,44.87-18.98,56.18-36.61,11.67-18.23,23.59-54.66,5.82-74.81ZM795.38,744.82c-12.26,19.11-38.1,35.84-52.87,25.14-11.46-8.31-13.01-30.78-7.56-46.08,11.18-31.33,55.57-43.38,67.99-29.31,9.06,10.28,1.88,35.51-7.56,50.25ZM963.66,638.43c-8.34-13.63-28.27-30.7-52.31-35.95-4.65-1.02-9.04-1.5-13.47-1.5-10.17,0-18.33,2.58-26.97,5.33-7.14,2.27-14.55,4.62-24.79,6.08-8.43,1.21-18.95,2.71-29.13,2.71-13.31,0-22.89-2.66-27.68-7.7-3.99-4.18-3.99-9.91-1.9-28.89,2.11-19.11,5-45.27-4.48-76.78-15.97-53.06-54.51-82.09-70.34-92.1-23.15-14.63-49.58-22.06-78.55-22.06-16.85,0-31.02,2.37-43.01,4.6-130.16,24.19-205.12,161.42-229.8,206.62-25.29,46.37-56.79,104.07-59.16,187-2.86,101.39,26.29,182.48,82.05,228.33,44,36.18,92.26,40.82,129.4,40.82,14.63,0,28.73-.81,42.35-1.58,61.07-3.46,124.48-24.39,183.36-60.47,120.95-74.08,211.98-204.88,230.15-288.55,6.01-27.68,4.08-49.85-5.73-65.92ZM730.79,976.08c-80.86,49.56-149.36,56.57-175.8,58.07-50.92,2.91-109.73,6.26-160.46-35.45-79.21-65.11-75.71-188.27-75.03-212.31,2.21-77.91,31.81-132.11,56.68-177.69,24.53-44.9,95.44-174.8,217.75-197.53,23.22-4.31,67.33-11.8,110.02,15.19,8.64,5.47,47.38,31.41,62.45,81.47,16.69,55.49-10.63,90.92,10.9,113.54,17,17.86,50.5,13.07,71.06,10.12,28.85-4.12,38.45-14.74,59.59-10.12,18.52,4.04,34.82,17.34,41.25,27.85,32.75,53.6-69.02,235.33-218.43,326.87ZM786.46,669.49c-24.65,0-56.75,16.59-67.71,47.35-8.2,23-5.14,55.18,14.21,69.21,5.94,4.31,12.82,6.51,20.45,6.51,22.45,0,44.87-18.98,56.18-36.61,11.67-18.23,23.59-54.66,5.82-74.81-6.72-7.62-16.74-11.64-28.95-11.64ZM795.38,744.82c-12.26,19.11-38.1,35.84-52.87,25.14-11.46-8.31-13.01-30.78-7.56-46.08,11.18-31.33,55.57-43.38,67.99-29.31,9.06,10.28,1.88,35.51-7.56,50.25ZM815.42,681.13c-6.72-7.62-16.74-11.64-28.95-11.64-24.65,0-56.75,16.59-67.71,47.35-8.2,23-5.14,55.18,14.21,69.21,5.94,4.31,12.82,6.51,20.45,6.51,22.45,0,44.87-18.98,56.18-36.61,11.67-18.23,23.59-54.66,5.82-74.81ZM795.38,744.82c-12.26,19.11-38.1,35.84-52.87,25.14-11.46-8.31-13.01-30.78-7.56-46.08,11.18-31.33,55.57-43.38,67.99-29.31,9.06,10.28,1.88,35.51-7.56,50.25ZM815.42,681.13c-6.72-7.62-16.74-11.64-28.95-11.64-24.65,0-56.75,16.59-67.71,47.35-8.2,23-5.14,55.18,14.21,69.21,5.94,4.31,12.82,6.51,20.45,6.51,22.45,0,44.87-18.98,56.18-36.61,11.67-18.23,23.59-54.66,5.82-74.81ZM795.38,744.82c-12.26,19.11-38.1,35.84-52.87,25.14-11.46-8.31-13.01-30.78-7.56-46.08,11.18-31.33,55.57-43.38,67.99-29.31,9.06,10.28,1.88,35.51-7.56,50.25ZM815.42,681.13c-6.72-7.62-16.74-11.64-28.95-11.64-24.65,0-56.75,16.59-67.71,47.35-8.2,23-5.14,55.18,14.21,69.21,5.94,4.31,12.82,6.51,20.45,6.51,22.45,0,44.87-18.98,56.18-36.61,11.67-18.23,23.59-54.66,5.82-74.81ZM795.38,744.82c-12.26,19.11-38.1,35.84-52.87,25.14-11.46-8.31-13.01-30.78-7.56-46.08,11.18-31.33,55.57-43.38,67.99-29.31,9.06,10.28,1.88,35.51-7.56,50.25ZM815.42,681.13c-6.72-7.62-16.74-11.64-28.95-11.64-24.65,0-56.75,16.59-67.71,47.35-8.2,23-5.14,55.18,14.21,69.21,5.94,4.31,12.82,6.51,20.45,6.51,22.45,0,44.87-18.98,56.18-36.61,11.67-18.23,23.59-54.66,5.82-74.81ZM795.38,744.82c-12.26,19.11-38.1,35.84-52.87,25.14-11.46-8.31-13.01-30.78-7.56-46.08,11.18-31.33,55.57-43.38,67.99-29.31,9.06,10.28,1.88,35.51-7.56,50.25Z"/>
    <path class="cls-2" d="M815.42,681.13c-6.72-7.62-16.74-11.64-28.95-11.64-24.65,0-56.75,16.59-67.71,47.35-8.2,23-5.14,55.18,14.21,69.21,5.94,4.31,12.82,6.51,20.45,6.51,22.45,0,44.87-18.98,56.18-36.61,11.67-18.23,23.59-54.66,5.82-74.81ZM795.38,744.82c-12.26,19.11-38.1,35.84-52.87,25.14-11.46-8.31-13.01-30.78-7.56-46.08,11.18-31.33,55.57-43.38,67.99-29.31,9.06,10.28,1.88,35.51-7.56,50.25Z"/>
    <path class="cls-2" d="M815.42,681.13c-6.72-7.62-16.74-11.64-28.95-11.64-24.65,0-56.75,16.59-67.71,47.35-8.2,23-5.14,55.18,14.21,69.21,5.94,4.31,12.82,6.51,20.45,6.51,22.45,0,44.87-18.98,56.18-36.61,11.67-18.23,23.59-54.66,5.82-74.81ZM795.38,744.82c-12.26,19.11-38.1,35.84-52.87,25.14-11.46-8.31-13.01-30.78-7.56-46.08,11.18-31.33,55.57-43.38,67.99-29.31,9.06,10.28,1.88,35.51-7.56,50.25Z"/>
    <path class="cls-2" d="M815.42,681.13c-6.72-7.62-16.74-11.64-28.95-11.64-24.65,0-56.75,16.59-67.71,47.35-8.2,23-5.14,55.18,14.21,69.21,5.94,4.31,12.82,6.51,20.45,6.51,22.45,0,44.87-18.98,56.18-36.61,11.67-18.23,23.59-54.66,5.82-74.81ZM795.38,744.82c-12.26,19.11-38.1,35.84-52.87,25.14-11.46-8.31-13.01-30.78-7.56-46.08,11.18-31.33,55.57-43.38,67.99-29.31,9.06,10.28,1.88,35.51-7.56,50.25ZM815.42,681.13c-6.72-7.62-16.74-11.64-28.95-11.64-24.65,0-56.75,16.59-67.71,47.35-8.2,23-5.14,55.18,14.21,69.21,5.94,4.31,12.82,6.51,20.45,6.51,22.45,0,44.87-18.98,56.18-36.61,11.67-18.23,23.59-54.66,5.82-74.81ZM795.38,744.82c-12.26,19.11-38.1,35.84-52.87,25.14-11.46-8.31-13.01-30.78-7.56-46.08,11.18-31.33,55.57-43.38,67.99-29.31,9.06,10.28,1.88,35.51-7.56,50.25ZM815.42,681.13c-6.72-7.62-16.74-11.64-28.95-11.64-24.65,0-56.75,16.59-67.71,47.35-8.2,23-5.14,55.18,14.21,69.21,5.94,4.31,12.82,6.51,20.45,6.51,22.45,0,44.87-18.98,56.18-36.61,11.67-18.23,23.59-54.66,5.82-74.81ZM795.38,744.82c-12.26,19.11-38.1,35.84-52.87,25.14-11.46-8.31-13.01-30.78-7.56-46.08,11.18-31.33,55.57-43.38,67.99-29.31,9.06,10.28,1.88,35.51-7.56,50.25ZM815.42,681.13c-6.72-7.62-16.74-11.64-28.95-11.64-24.65,0-56.75,16.59-67.71,47.35-8.2,23-5.14,55.18,14.21,69.21,5.94,4.31,12.82,6.51,20.45,6.51,22.45,0,44.87-18.98,56.18-36.61,11.67-18.23,23.59-54.66,5.82-74.81ZM795.38,744.82c-12.26,19.11-38.1,35.84-52.87,25.14-11.46-8.31-13.01-30.78-7.56-46.08,11.18-31.33,55.57-43.38,67.99-29.31,9.06,10.28,1.88,35.51-7.56,50.25ZM815.42,681.13c-6.72-7.62-16.74-11.64-28.95-11.64-24.65,0-56.75,16.59-67.71,47.35-8.2,23-5.14,55.18,14.21,69.21,5.94,4.31,12.82,6.51,20.45,6.51,22.45,0,44.87-18.98,56.18-36.61,11.67-18.23,23.59-54.66,5.82-74.81ZM795.38,744.82c-12.26,19.11-38.1,35.84-52.87,25.14-11.46-8.31-13.01-30.78-7.56-46.08,11.18-31.33,55.57-43.38,67.99-29.31,9.06,10.28,1.88,35.51-7.56,50.25ZM815.42,681.13c-6.72-7.62-16.74-11.64-28.95-11.64-24.65,0-56.75,16.59-67.71,47.35-8.2,23-5.14,55.18,14.21,69.21,5.94,4.31,12.82,6.51,20.45,6.51,22.45,0,44.87-18.98,56.18-36.61,11.67-18.23,23.59-54.66,5.82-74.81ZM795.38,744.82c-12.26,19.11-38.1,35.84-52.87,25.14-11.46-8.31-13.01-30.78-7.56-46.08,11.18-31.33,55.57-43.38,67.99-29.31,9.06,10.28,1.88,35.51-7.56,50.25ZM963.66,638.43c-8.34-13.63-28.27-30.7-52.31-35.95-4.65-1.02-9.04-1.5-13.47-1.5-10.17,0-18.33,2.58-26.97,5.33-7.14,2.27-14.55,4.62-24.79,6.08-8.43,1.21-18.95,2.71-29.13,2.71-13.31,0-22.89-2.66-27.68-7.7-3.99-4.18-3.99-9.91-1.9-28.89,2.11-19.11,5-45.27-4.48-76.78-15.97-53.06-54.51-82.09-70.34-92.1-23.15-14.63-49.58-22.06-78.55-22.06-16.85,0-31.02,2.37-43.01,4.6-130.16,24.19-205.12,161.42-229.8,206.62-25.29,46.37-56.79,104.07-59.16,187-2.86,101.39,26.29,182.48,82.05,228.33,44,36.18,92.26,40.82,129.4,40.82,14.63,0,28.73-.81,42.35-1.58,61.07-3.46,124.48-24.39,183.36-60.47,120.95-74.08,211.98-204.88,230.15-288.55,6.01-27.68,4.08-49.85-5.73-65.92ZM730.79,976.08c-80.86,49.56-149.36,56.57-175.8,58.07-50.92,2.91-109.73,6.26-160.46-35.45-79.21-65.11-75.71-188.27-75.03-212.31,2.21-77.91,31.81-132.11,56.68-177.69,24.53-44.9,95.44-174.8,217.75-197.53,23.22-4.31,67.33-11.8,110.02,15.19,8.64,5.47,47.38,31.41,62.45,81.47,16.69,55.49-10.63,90.92,10.9,113.54,17,17.86,50.5,13.07,71.06,10.12,28.85-4.12,38.45-14.74,59.59-10.12,18.52,4.04,34.82,17.34,41.25,27.85,32.75,53.6-69.02,235.33-218.43,326.87ZM786.46,669.49c-24.65,0-56.75,16.59-67.71,47.35-8.2,23-5.14,55.18,14.21,69.21,5.94,4.31,12.82,6.51,20.45,6.51,22.45,0,44.87-18.98,56.18-36.61,11.67-18.23,23.59-54.66,5.82-74.81-6.72-7.62-16.74-11.64-28.95-11.64ZM795.38,744.82c-12.26,19.11-38.1,35.84-52.87,25.14-11.46-8.31-13.01-30.78-7.56-46.08,11.18-31.33,55.57-43.38,67.99-29.31,9.06,10.28,1.88,35.51-7.56,50.25ZM815.42,681.13c-6.72-7.62-16.74-11.64-28.95-11.64-24.65,0-56.75,16.59-67.71,47.35-8.2,23-5.14,55.18,14.21,69.21,5.94,4.31,12.82,6.51,20.45,6.51,22.45,0,44.87-18.98,56.18-36.61,11.67-18.23,23.59-54.66,5.82-74.81ZM795.38,744.82c-12.26,19.11-38.1,35.84-52.87,25.14-11.46-8.31-13.01-30.78-7.56-46.08,11.18-31.33,55.57-43.38,67.99-29.31,9.06,10.28,1.88,35.51-7.56,50.25ZM815.42,681.13c-6.72-7.62-16.74-11.64-28.95-11.64-24.65,0-56.75,16.59-67.71,47.35-8.2,23-5.14,55.18,14.21,69.21,5.94,4.31,12.82,6.51,20.45,6.51,22.45,0,44.87-18.98,56.18-36.61,11.67-18.23,23.59-54.66,5.82-74.81ZM795.38,744.82c-12.26,19.11-38.1,35.84-52.87,25.14-11.46-8.31-13.01-30.78-7.56-46.08,11.18-31.33,55.57-43.38,67.99-29.31,9.06,10.28,1.88,35.51-7.56,50.25ZM815.42,681.13c-6.72-7.62-16.74-11.64-28.95-11.64-24.65,0-56.75,16.59-67.71,47.35-8.2,23-5.14,55.18,14.21,69.21,5.94,4.31,12.82,6.51,20.45,6.51,22.45,0,44.87-18.98,56.18-36.61,11.67-18.23,23.59-54.66,5.82-74.81ZM795.38,744.82c-12.26,19.11-38.1,35.84-52.87,25.14-11.46-8.31-13.01-30.78-7.56-46.08,11.18-31.33,55.57-43.38,67.99-29.31,9.06,10.28,1.88,35.51-7.56,50.25ZM815.42,681.13c-6.72-7.62-16.74-11.64-28.95-11.64-24.65,0-56.75,16.59-67.71,47.35-8.2,23-5.14,55.18,14.21,69.21,5.94,4.31,12.82,6.51,20.45,6.51,22.45,0,44.87-18.98,56.18-36.61,11.67-18.23,23.59-54.66,5.82-74.81ZM795.38,744.82c-12.26,19.11-38.1,35.84-52.87,25.14-11.46-8.31-13.01-30.78-7.56-46.08,11.18-31.33,55.57-43.38,67.99-29.31,9.06,10.28,1.88,35.51-7.56,50.25Z"/>
    <path class="cls-2" d="M815.42,681.13c-6.72-7.62-16.74-11.64-28.95-11.64-24.65,0-56.75,16.59-67.71,47.35-8.2,23-5.14,55.18,14.21,69.21,5.94,4.31,12.82,6.51,20.45,6.51,22.45,0,44.87-18.98,56.18-36.61,11.67-18.23,23.59-54.66,5.82-74.81ZM795.38,744.82c-12.26,19.11-38.1,35.84-52.87,25.14-11.46-8.31-13.01-30.78-7.56-46.08,11.18-31.33,55.57-43.38,67.99-29.31,9.06,10.28,1.88,35.51-7.56,50.25Z"/>
  </g>
  <g>
    <path class="cls-1" d="M563.21,598.16c-5.09,0-10.05-.89-14.75-2.63-24.38-9.07-32.83-37.64-34.84-46.18-1.45-6.17-5.86-24.94,2.3-43.18,9.52-21.27,32.55-32.98,64.86-32.98,12.53,0,25.63,1.83,36.88,5.15,16.53,4.88,36.23,13.96,36.26,29.54.02,9.05-6.24,13.51-11.76,17.45-3.85,2.75-8.64,6.16-13.5,11.92-5.45,6.46-6.97,11.04-8.73,16.35-1.78,5.37-3.79,11.46-9.3,18.72-9.04,11.92-26.88,25.84-47.42,25.84h0Z"/>
    <path class="cls-1" d="M615.41,487.64c-27.59-8.14-77.37-9.18-91.68,22.79-6.73,15.03-2.9,31.29-1.68,36.5,1.43,6.1,8.39,31.74,29.18,39.48,20.35,7.57,42.2-6.39,52.72-20.26,9.81-12.94,5.98-20.81,18.34-35.45,11.92-14.13,22.93-15.63,22.92-22.79-.02-11.24-27.15-19.48-29.8-20.26Z"/>
  </g>
  <g>
    <path class="cls-1" d="M452,764.89c-19.77,0-39.62-13.14-49.39-32.69-10.05-20.12-6.02-40.45-4.5-48.1,6.72-33.82,34.05-71.51,62.52-71.51,2.48,0,4.96.28,7.37.84,29.13,6.75,44.82,53.74,38.87,89.66-1.48,8.92-10.63,53.77-45.97,60.92-2.91.59-5.91.89-8.9.89h0Z"/>
    <path class="cls-1" d="M466.21,622.85c-25.84-5.99-53.28,31.51-59.59,63.31-1.56,7.86-4.69,24.78,3.61,41.39,9.1,18.21,29.42,30.97,49.11,26.99,30.59-6.18,38.18-48.43,38.97-53.18,5.26-31.79-8.34-73.01-32.09-78.51Z"/>
  </g>
  <g>
    <path class="cls-1" d="M404.87,904.91c-16.06,0-34.22-13.79-42.24-32.07-9.63-21.93-3.34-47.18,5.75-63.5,8.2-14.71,19.21-23.59,29.46-23.77h.32c18.88,0,30.15,27.97,33.15,36.54,6.91,19.74,7.03,45.2.29,61.91-3.77,9.36-9.57,15.9-16.78,18.93-3.08,1.3-6.43,1.95-9.95,1.95Z"/>
    <path class="cls-1" d="M397.97,795.2c14.2-.24,24.22,27.56,25.21,30.39,8.57,24.47,5.81,61.12-11.46,68.38-13.59,5.72-33.59-7.86-41.26-25.33-13.27-30.24,10-73.14,27.51-73.44Z"/>
  </g>
  <g>
    <path class="cls-1" d="M649.71,973.31c-27.26,0-53.06-17.06-62.73-41.48-10.37-26.2,0-51.89,4.95-61.71,10.58-21.03,34.62-43.66,62.43-43.66,6.62,0,13.12,1.3,19.3,3.88,28.88,12,40.98,46.1,40.02,72.71-.06,1.7-1.86,42.02-31.86,61.13-9.39,5.98-20.49,9.14-32.11,9.14Z"/>
    <path class="cls-1" d="M599.54,874.79c12.36-24.58,42.38-47.38,71.06-35.46,23.7,9.86,35.27,38.78,34.38,63.31-.07,1.98-1.85,36.84-27.51,53.18-28.42,18.1-70.17,3.31-82.52-27.86-9.3-23.48,1.64-47.32,4.58-53.18Z"/>
  </g>
  <g>
    <path class="cls-1" d="M502.91,1017.99c-1.08,0-2.15-.04-3.23-.12-17.87-1.31-36.18-13.98-46.64-32.27-6.89-12.04-10.13-25.84-9.62-41,.99-29.45,18.51-64.39,42.07-67.45,1.05-.14,2.08-.2,3.07-.2,7.85,0,13.07,4.1,19.67,9.3,5.45,4.29,12.92,10.16,25.7,17.17,9.36,5.13,15.66,7.64,20.27,9.48,6.87,2.73,12.29,4.9,15.75,12.6,5.49,12.23,2.33,30.99-8.45,50.19-11.48,20.46-32.9,42.31-58.59,42.31Z"/>
    <path class="cls-1" d="M452.12,944.95c.86-25.74,16-55.86,34.38-58.25,11.41-1.48,13.86,9.05,43.55,25.33,22.87,12.54,28.76,10.31,32.09,17.73,9.82,21.88-23.4,81.33-61.89,78.51-15.69-1.15-31.14-12.57-39.86-27.81-8.77-15.32-8.45-30.51-8.28-35.51Z"/>
  </g>
  <path class="cls-1" d="M932.93,589.46c-.64-6.47,42.66-18.04,77.03-23.61,52.85-8.57,89.97-4.18,129.12,1.49,45.54,6.6,61.1,14.77,72.05,28.75.91,1.16,12.81,16.67,15.01,35.38,8.68,73.77-138.53,154.54-167.79,170-57.91,30.61-104.98,43.93-145.89,55.25-220.36,60.97-307.76,79.91-307.76,79.91-47.42,10.28-316.07,67.13-523.38,44.23-21.45-2.37-61.65-7.74-76.05-37.59-24.83-51.48,45.56-142.8,59.04-160.32,26-33.79,55.25-57.98,72.05-71.87,23.7-19.6,42.27-31.52,62.04-44.23,0,0,30.11-18.98,122.68-55.69,3.57-1.42,12.48-4.86,14.42-1.8,1.88,2.96-3.7,10.58-5.59,13.17-18.61,25.44-100.86,57.02-148.81,91.95-20.28,14.77-55.58,45.56-76.19,96.47-9.71,23.98-21.36,54.52-12.59,80.35,12.55,36.97,73.1,51.01,177.13,49.76,123.31-1.49,205.65-24.16,305.22-45.33,251.88-53.56,279.09-43.48,377.27-89.56,95.06-44.62,204.65-117.5,195.14-164.75-4.29-21.31-33.09-38.83-37.15-41.23-23.43-13.88-46.37-12.9-69.92-11.84-31.05,1.4-44.42,9.13-81.06,6.63-10.38-.71-25.65-1.75-26.02-5.53Z"/>
  <path class="cls-1" d="M172.38,544.12c.09-8.06,30-4.53,51.36-24.23,35.53-32.75,25.11-108.49,28.69-108.45,3.5.04-7.76,72.14,26.02,105.04,20.27,19.74,49.16,17.95,49.04,26.54-.12,8.16-26.12,5.68-44.92,23.5-32.62,30.93-20.56,101.23-25.13,101.44-4.34.2,2.85-64.22-30.02-96.19-22.88-22.26-55.14-19.28-55.04-27.64Z"/>
  <path class="cls-1" d="M972.81,856.85c-.55-6.82,57.06-1.76,90.06-38.7,41.7-46.66,24.16-137.99,29.02-138.21,4.91-.22-5.7,94.48,40.03,136,34.59,31.4,87.84,20.04,88.06,27.64.22,7.51-52.42.01-86.06,33.17-44.18,43.55-31.78,133.78-38.79,133.79-7.28.01,4.6-97.13-40.95-134.62-32.32-26.6-80.86-12.71-81.37-19.07Z"/>
  <ellipse class="cls-1" cx="116.72" cy="735.22" rx="61.32" ry="67.75"/>
  <ellipse class="cls-1" cx="1039.51" cy="579.35" rx="41.53" ry="43.67"/>
</svg>