<?xml version="1.0" encoding="utf-8"?>
<svg viewBox="9.919 246.008 472.226 311.9" xmlns="http://www.w3.org/2000/svg">
  <g id="Layer_4" data-name="Layer 4" transform="matrix(0.31211200356483465, 0, 0, 0.3560640215873719, 30.490570977049174, 135.53596900510684)" style="">
    <g>
      <text class="cls-4" transform="translate(715.12 721.24) scale(1.38 1)" style="white-space: pre; fill: rgb(35, 31, 32); font-family: MandritaDisplaySSi, 'Abbott Old Style'; font-size: 128.19px; line-height: 205.104px; perspective-origin: 132.635px 0px;"><tspan x="0" y="0">Stellar</tspan></text>
      <text class="cls-2" transform="translate(814.91 824.62) scale(1.09 1)" style="white-space: pre; fill: rgb(35, 31, 32); font-family: MandritaDisplaySSi, 'Abbott Old Style'; font-size: 148.41px; line-height: 237.456px; perspective-origin: 171.333px 0px;"><tspan x="0" y="0">Canvas</tspan></text>
    </g>
  </g>
  <g id="Layer_5" data-name="Layer 5" transform="matrix(0.31211200356483465, 0, 0, 0.3560640215873719, 30.490570977049174, 135.53596900510684)" style="">
    <g>
      <g>
        <path class="cls-3" d="M 452.73 695.66 C 449.01 691.52 443.46 689.33 436.7 689.33 C 423.06 689.33 405.29 698.35 399.22 715.06 C 394.68 727.56 396.38 745.05 407.09 752.67 C 410.38 755.01 414.19 756.21 418.41 756.21 C 430.84 756.21 443.25 745.9 449.51 736.32 C 455.97 726.42 462.57 706.62 452.73 695.66 Z M 444.964 732.091 C 438.174 742.481 419.511 753.574 411.341 747.754 C 405.001 743.234 401.648 724.478 404.668 716.158 C 410.858 699.128 439.583 690.393 446.453 698.043 C 451.463 703.633 450.194 724.081 444.974 732.091 L 444.964 732.091 Z M 452.73 695.66 C 449.01 691.52 443.46 689.33 436.7 689.33 C 423.06 689.33 405.29 698.35 399.22 715.06 C 394.68 727.56 396.38 745.05 407.09 752.67 C 410.38 755.01 414.19 756.21 418.41 756.21 C 430.84 756.21 443.25 745.9 449.51 736.32 C 455.97 726.42 462.57 706.62 452.73 695.66 Z M 444.964 732.091 C 438.174 742.481 419.719 752.846 411.549 747.026 C 405.209 742.506 401.648 724.478 404.668 716.158 C 410.858 699.128 439.168 689.847 446.038 697.497 C 451.048 703.087 450.194 724.081 444.974 732.091 L 444.964 732.091 Z M 452.73 695.66 C 449.01 691.52 443.46 689.33 436.7 689.33 C 423.06 689.33 405.29 698.35 399.22 715.06 C 394.68 727.56 396.38 745.05 407.09 752.67 C 410.38 755.01 414.19 756.21 418.41 756.21 C 430.84 756.21 443.25 745.9 449.51 736.32 C 455.97 726.42 462.57 706.62 452.73 695.66 Z M 444.964 732.091 C 438.174 742.481 419.303 753.028 411.133 747.208 C 404.793 742.688 401.44 724.843 404.46 716.523 C 410.65 699.493 439.375 690.211 446.245 697.861 C 451.255 703.451 450.194 724.081 444.974 732.091 L 444.964 732.091 Z M 452.73 695.66 C 449.01 691.52 443.46 689.33 436.7 689.33 C 423.06 689.33 405.29 698.35 399.22 715.06 C 394.68 727.56 396.38 745.05 407.09 752.67 C 410.38 755.01 414.19 756.21 418.41 756.21 C 430.84 756.21 443.25 745.9 449.51 736.32 C 455.97 726.42 462.57 706.62 452.73 695.66 Z M 444.964 732.091 C 438.174 742.481 419.511 753.574 411.341 747.754 C 405.001 743.234 401.856 725.025 404.876 716.705 C 411.066 699.675 439.791 690.758 446.661 698.408 C 451.671 703.998 450.194 724.081 444.974 732.091 L 444.964 732.091 Z M 452.73 695.66 C 449.01 691.52 443.46 689.33 436.7 689.33 C 423.06 689.33 405.29 698.35 399.22 715.06 C 394.68 727.56 396.38 745.05 407.09 752.67 C 410.38 755.01 414.19 756.21 418.41 756.21 C 430.84 756.21 443.25 745.9 449.51 736.32 C 455.97 726.42 462.57 706.62 452.73 695.66 Z M 444.964 732.091 C 438.174 742.481 419.511 753.21 411.341 747.39 C 405.001 742.87 401.648 725.025 404.668 716.705 C 410.858 699.675 439.791 690.211 446.661 697.861 C 451.671 703.451 450.194 724.081 444.974 732.091 L 444.964 732.091 Z M 452.73 695.66 C 449.01 691.52 443.46 689.33 436.7 689.33 C 423.06 689.33 405.29 698.35 399.22 715.06 C 394.68 727.56 396.38 745.05 407.09 752.67 C 410.38 755.01 414.19 756.21 418.41 756.21 C 430.84 756.21 443.25 745.9 449.51 736.32 C 455.97 726.42 462.57 706.62 452.73 695.66 Z M 444.964 732.091 C 438.174 742.481 419.927 753.392 411.757 747.572 C 405.417 743.052 401.856 724.478 404.876 716.158 C 411.066 699.128 439.998 690.394 446.868 698.044 C 451.878 703.634 450.194 724.081 444.974 732.091 L 444.964 732.091 Z M 534.79 672.46 C 530.17 665.05 519.14 655.78 505.83 652.92 C 503.26 652.37 500.83 652.1 498.38 652.1 C 492.75 652.1 488.24 653.5 483.45 655 C 479.5 656.23 475.4 657.51 469.73 658.31 C 465.06 658.97 459.24 659.78 453.61 659.78 C 446.24 659.78 440.94 658.34 438.29 655.6 C 436.08 653.33 436.08 650.21 437.24 639.9 C 438.41 629.51 440.01 615.3 434.76 598.18 C 425.92 569.34 404.59 553.57 395.82 548.13 C 383.01 540.18 368.38 536.14 352.34 536.14 C 343.02 536.14 335.17 537.43 328.53 538.64 C 256.48 551.79 214.99 626.36 201.33 650.92 C 187.33 676.12 169.9 707.47 168.58 752.54 C 167 807.64 183.13 851.7 214 876.62 C 238.36 896.28 265.07 898.8 285.62 898.8 C 293.72 898.8 301.52 898.36 309.06 897.94 C 342.87 896.06 377.96 884.69 410.55 865.08 C 477.5 824.82 527.89 753.74 537.94 708.27 C 541.27 693.23 540.2 681.18 534.77 672.45 L 534.79 672.46 Z M 405.89 855.94 C 361.13 882.87 323.22 886.68 308.58 887.5 C 280.4 889.08 247.84 890.9 219.77 868.23 C 175.93 832.85 177.86 765.92 178.24 752.85 C 179.46 710.51 195.85 681.06 209.62 656.29 C 223.2 631.89 262.45 561.3 330.15 548.95 C 343 546.61 367.42 542.54 391.05 557.2 C 395.83 560.17 417.28 574.27 425.62 601.47 C 434.86 631.62 419.74 650.88 431.66 663.17 C 441.07 672.88 459.61 670.27 470.99 668.67 C 486.96 666.43 492.27 660.66 503.98 663.17 C 514.23 665.37 523.25 672.59 526.81 678.3 C 544.94 707.43 488.61 806.19 405.91 855.93 L 405.89 855.94 Z M 436.71 689.34 C 423.07 689.34 405.3 698.36 399.23 715.07 C 394.69 727.57 396.39 745.06 407.1 752.68 C 410.39 755.02 414.2 756.22 418.42 756.22 C 430.85 756.22 443.26 745.91 449.52 736.33 C 455.98 726.43 462.58 706.63 452.74 695.67 C 449.02 691.53 443.47 689.34 436.71 689.34 Z M 444.964 732.091 C 438.174 742.481 419.511 752.664 411.341 746.844 C 405.001 742.324 401.856 724.843 404.876 716.523 C 411.066 699.493 439.583 690.757 446.453 698.407 C 451.463 703.997 450.194 724.081 444.974 732.091 L 444.964 732.091 Z M 452.73 695.66 C 449.01 691.52 443.46 689.33 436.7 689.33 C 423.06 689.33 405.29 698.35 399.22 715.06 C 394.68 727.56 396.38 745.05 407.09 752.67 C 410.38 755.01 414.19 756.21 418.41 756.21 C 430.84 756.21 443.25 745.9 449.51 736.32 C 455.97 726.42 462.57 706.62 452.73 695.66 Z M 444.964 732.091 C 438.174 742.481 419.719 753.392 411.549 747.572 C 405.209 743.052 401.025 723.022 404.045 714.702 C 410.235 697.672 440.414 690.394 447.284 698.044 C 452.294 703.634 450.194 724.081 444.974 732.091 L 444.964 732.091 Z M 452.73 695.66 C 449.01 691.52 443.46 689.33 436.7 689.33 C 423.06 689.33 405.29 698.35 399.22 715.06 C 394.68 727.56 396.38 745.05 407.09 752.67 C 410.38 755.01 414.19 756.21 418.41 756.21 C 430.84 756.21 443.25 745.9 449.51 736.32 C 455.97 726.42 462.57 706.62 452.73 695.66 Z M 444.964 732.091 C 438.174 742.481 419.719 753.21 411.549 747.39 C 405.209 742.87 401.44 724.478 404.46 716.158 C 410.65 699.128 439.791 690.028 446.661 697.678 C 451.671 703.268 450.194 724.081 444.974 732.091 L 444.964 732.091 Z M 452.73 695.66 C 449.01 691.52 443.46 689.33 436.7 689.33 C 423.06 689.33 405.29 698.35 399.22 715.06 C 394.68 727.56 396.38 745.05 407.09 752.67 C 410.38 755.01 414.19 756.21 418.41 756.21 C 430.84 756.21 443.25 745.9 449.51 736.32 C 455.97 726.42 462.57 706.62 452.73 695.66 Z M 445.172 732.637 C 438.382 743.027 419.511 753.392 411.341 747.572 C 405.001 743.052 402.479 725.025 405.499 716.705 C 411.689 699.675 439.375 690.393 446.245 698.043 C 451.255 703.633 450.402 725.174 445.182 733.184 L 445.172 732.637 Z M 452.73 695.66 C 449.01 691.52 443.46 689.33 436.7 689.33 C 423.06 689.33 405.29 698.35 399.22 715.06 C 394.68 727.56 396.38 745.05 407.09 752.67 C 410.38 755.01 414.19 756.21 418.41 756.21 C 430.84 756.21 442.889 745.9 449.149 736.32 C 455.609 726.42 462.57 706.62 452.73 695.66 Z M 444.549 732.455 C 437.759 742.845 419.511 752.664 411.341 746.844 C 405.001 742.324 402.271 725.025 405.291 716.705 C 411.481 699.675 439.583 690.576 446.453 698.226 C 451.463 703.816 449.986 724.81 444.766 732.82 L 444.549 732.455 Z" style="fill: rgb(35, 31, 32); stroke: rgb(0, 0, 0); stroke-miterlimit: 10; paint-order: fill;"/>
        <g>
          <path class="cls-1" d="M313.13,650.58c-2.82,0-5.56-.48-8.16-1.43-13.5-4.93-18.17-20.45-19.28-25.09-.8-3.35-3.25-13.55,1.27-23.47,5.27-11.56,18.02-17.92,35.9-17.92,6.93,0,14.18.99,20.42,2.8,9.15,2.65,20.05,7.59,20.07,16.05,0,4.92-3.45,7.34-6.51,9.48-2.13,1.49-4.78,3.35-7.47,6.48-3.02,3.51-3.86,6-4.83,8.89-.98,2.92-2.1,6.22-5.15,10.17-5,6.48-14.88,14.04-26.25,14.04h0Z" style="fill: rgb(35, 31, 32); stroke-width: 0px;"/>
          <path class="cls-1" d="M342.03,590.51c-15.27-4.43-42.83-4.99-50.75,12.39-3.72,8.17-1.61,17-.93,19.83.79,3.31,4.64,17.25,16.15,21.45,11.26,4.11,23.36-3.47,29.18-11.01,5.43-7.03,3.31-11.31,10.15-19.27,6.6-7.68,12.69-8.49,12.69-12.39-.01-6.11-15.03-10.58-16.49-11.01Z" style="fill: rgb(35, 31, 32); stroke-width: 0px;"/>
        </g>
        <g>
          <path class="cls-1" d="M251.57,741.18c-10.94,0-21.93-7.14-27.34-17.77-5.57-10.93-3.33-21.98-2.49-26.14,3.72-18.38,18.85-38.86,34.61-38.86,1.37,0,2.74.15,4.08.46,16.13,3.67,24.81,29.2,21.52,48.72-.82,4.85-5.89,29.22-25.44,33.1-1.61.32-3.27.48-4.93.48h0Z" style="fill: rgb(35, 31, 32); stroke-width: 0px;"/>
          <path class="cls-1" d="M259.44,663.99c-14.3-3.25-29.49,17.12-32.99,34.41-.86,4.27-2.59,13.47,2,22.49,5.04,9.9,16.28,16.83,27.18,14.67,16.93-3.36,21.13-26.32,21.57-28.9,2.91-17.27-4.62-39.67-17.76-42.66Z" style="fill: rgb(35, 31, 32); stroke-width: 0px;"/>
        </g>
        <g>
          <path class="cls-1" d="M225.49,817.27c-8.89,0-18.94-7.49-23.38-17.43-5.33-11.92-1.85-25.64,3.18-34.51,4.54-7.99,10.63-12.82,16.31-12.92h.18c10.45,0,16.69,15.2,18.35,19.86,3.83,10.73,3.89,24.56.16,33.65-2.09,5.08-5.3,8.64-9.29,10.29-1.71.7-3.56,1.06-5.51,1.06Z" style="fill: rgb(35, 31, 32); stroke-width: 0px;"/>
          <path class="cls-1" d="M221.67,757.65c7.86-.13,13.41,14.98,13.96,16.51,4.74,13.3,3.21,33.21-6.34,37.16-7.52,3.11-18.59-4.27-22.84-13.76-7.35-16.43,5.54-39.75,15.22-39.91Z" style="fill: rgb(35, 31, 32); stroke-width: 0px;"/>
        </g>
        <g>
          <path class="cls-1" d="M361.01,854.44c-15.09,0-29.37-9.27-34.72-22.54-5.74-14.24,0-28.2,2.74-33.54,5.85-11.43,19.17-23.73,34.56-23.73,3.66,0,7.26.71,10.69,2.11,15.98,6.52,22.69,25.05,22.15,39.51-.03.93-1.03,22.84-17.63,33.22-5.2,3.25-11.34,4.97-17.78,4.97Z" style="fill: rgb(35, 31, 32); stroke-width: 0px;"/>
          <path class="cls-1" d="M333.24,800.9c6.84-13.36,23.46-25.75,39.33-19.27,13.12,5.36,19.52,21.07,19.03,34.41-.04,1.07-1.02,20.02-15.22,28.9-15.73,9.84-38.84,1.8-45.67-15.14-5.15-12.76.91-25.71,2.54-28.9Z" style="fill: rgb(35, 31, 32); stroke-width: 0px;"/>
        </g>
      </g>
      <g>
        <path class="cls-1" d="M279.75,878.72c-.6,0-1.19-.02-1.79-.06-9.89-.71-20.02-7.6-25.82-17.54-3.81-6.54-5.61-14.04-5.32-22.28.55-16,10.24-34.99,23.29-36.65.58-.07,1.15-.11,1.7-.11,4.35,0,7.23,2.23,10.89,5.05,3.02,2.33,7.15,5.52,14.23,9.33,5.18,2.79,8.67,4.15,11.22,5.15,3.8,1.49,6.8,2.66,8.72,6.85,3.04,6.64,1.29,16.84-4.67,27.28-6.36,11.12-18.21,22.99-32.43,22.99Z" style="fill: rgb(35, 31, 32); stroke-width: 0px;"/>
        <path class="cls-1" d="M251.64,839.03c.48-13.99,8.86-30.35,19.03-31.65,6.32-.81,7.67,4.92,24.11,13.76,12.66,6.81,15.92,5.6,17.76,9.63,5.44,11.89-12.95,44.2-34.26,42.66-8.69-.63-17.24-6.83-22.06-15.11-4.85-8.32-4.67-16.58-4.58-19.29Z" style="fill: rgb(35, 31, 32); stroke-width: 0px;"/>
      </g>
    </g>
    <path class="cls-1" d="M516.39,645.7c-.35-3.52,23.62-9.8,42.64-12.83,29.25-4.66,49.8-2.27,71.47.81,25.21,3.59,33.82,8.03,39.88,15.62.5.63,7.09,9.06,8.31,19.23,4.8,40.09-76.68,83.98-92.88,92.38-32.06,16.64-58.11,23.87-80.75,30.02-121.97,33.13-170.35,43.43-170.35,43.43-26.25,5.59-174.95,36.48-289.7,24.03-11.88-1.29-34.13-4.21-42.1-20.43-13.75-27.98,25.22-77.6,32.68-87.12,14.39-18.36,30.58-31.51,39.88-39.06,13.12-10.65,23.4-17.13,34.34-24.03,0,0,16.67-10.31,67.91-30.26,1.98-.77,6.91-2.64,7.98-.98,1.04,1.61-2.05,5.75-3.1,7.16-10.3,13.83-55.83,30.99-82.37,49.97-11.22,8.03-30.76,24.76-42.17,52.43-5.37,13.03-11.82,29.62-6.97,43.66,6.95,20.09,40.46,27.72,98.04,27.04,68.25-.81,113.83-13.13,168.94-24.63,139.42-29.11,154.48-23.63,208.83-48.67,52.62-24.25,113.28-63.85,108.01-89.53-2.37-11.58-18.32-21.1-20.57-22.41-12.97-7.54-25.67-7.01-38.7-6.43-17.19.76-24.59,4.96-44.87,3.61-5.74-.38-14.2-.95-14.4-3Z" style="fill: rgb(35, 31, 32); stroke-width: 0px;"/>
    <path class="cls-1" d="M95.42,621.07c.05-4.38,16.61-2.46,28.43-13.17,19.67-17.8,13.9-58.96,15.88-58.94,1.94.02-4.3,39.21,14.4,57.08,11.22,10.73,27.21,9.75,27.14,14.42-.06,4.43-14.46,3.09-24.86,12.77-18.05,16.81-11.38,55.01-13.91,55.12-2.4.11,1.58-34.9-16.62-52.27-12.67-12.1-30.52-10.48-30.47-15.02Z" style="fill: rgb(35, 31, 32); stroke-width: 0px;"/>
    <path class="cls-1" d="M538.47,791.01c-.3-3.71,31.58-.96,49.85-21.03,23.08-25.36,13.37-74.99,16.06-75.11,2.72-.12-3.16,51.34,22.16,73.9,19.15,17.06,48.62,10.89,48.74,15.02.12,4.08-29.02,0-47.64,18.03-24.46,23.67-17.59,72.7-21.47,72.7-4.03,0,2.55-52.78-22.67-73.16-17.89-14.45-44.76-6.91-45.04-10.36Z" style="fill: rgb(35, 31, 32); stroke-width: 0px;"/>
    <ellipse class="cls-1" cx="64.61" cy="724.91" rx="33.94" ry="36.82" style="fill: rgb(35, 31, 32); stroke-width: 0px;"/>
    <ellipse class="cls-1" cx="575.38" cy="640.21" rx="22.99" ry="23.73" style="fill: rgb(35, 31, 32); stroke-width: 0px;"/>
  </g>
</svg>